<?xml version="1.0" encoding="UTF-8"?>
<svg id="Warstwa_2" data-name="Warstwa 2" xmlns="http://www.w3.org/2000/svg" viewBox="0 0 95.57 72.12">
  <defs>
    <style>
      .cls-1 {
        fill: #ff005c;
      }

      .cls-2 {
        fill: #ffffff;
        stroke: #cccccc;
      }

      .cls-1, .cls-2 {
        stroke-width: 1px;
      }
    </style>
  </defs>
  <g id="Warstwa_1-2" data-name="Warstwa 1">
    <g>
      <path class="cls-1" d="M30.07,60.47l.34.33c-4.27,2.9-8.52,6.67-12.73,11.31l-.33-.33c1.23-1.49,1.84-2.47,1.84-2.93,0-.78-.63-1.96-1.88-3.52-1.26-1.56-2.92-2.35-4.98-2.35-3.46,0-7.2,1.76-11.22,5.28l-.92.75-.17-.33c0-.56,1.97-2.32,5.92-5.28,3.95-2.96,7.63-4.44,11.05-4.44,2.86,0,5.69.97,8.49,2.91l.84.53c.5,0,1.16-.32,1.97-.96.81-.64,1.41-.96,1.8-.96ZM15.66,25.21c3.13,1.62,5.68,3.8,7.66,6.53,1.98,2.74,2.97,5.72,2.97,8.96,0,4.13-3.25,8.85-9.76,14.16-6.5,5.31-10.23,7.93-11.18,7.87,0-.28.31-.64.92-1.09,5.92-4.23,9.49-7.52,10.72-9.86,1.23-2.34,1.84-5.4,1.84-9.19,0-2.95-1.16-5.57-3.48-7.85-2.32-2.28-3.9-3.42-4.73-3.42-.67,0-1.59.42-2.76,1.26-2.9,1.96-4.5,2.93-4.77,2.93-.45,0-.64-.34-.59-1.01,5.67-3.65,10.22-7.52,13.65-11.61l1.26-1.2.33.5c0,1.15-.7,2.15-2.09,3.02Z"/>
      <path class="cls-2" d="M49,26.47c-.56-.78-1.61-2.06-3.14-3.85-1.54-1.79-2.71-3.5-3.52-5.15-.81-1.65-1.21-3.87-1.21-6.66s.78-5.29,2.35-7.5c1.57-2.21,2.63-3.31,3.18-3.31.33,0,.5.2.5.59,0,.28-.2.61-.59,1-1.29,1.23-1.93,3.07-1.93,5.52,0,1.34.41,2.76,1.22,4.26.81,1.5,3.38,4.26,7.7,8.28,4.32,4.01,7.21,7.66,8.66,10.95,1.46,3.29,2.19,6.55,2.19,9.78,0,9.31-4.67,16.94-14.01,22.9-2.95,1.88-4.84,4.01-5.67,6.4l-.5.77c-.5,0-.75-.17-.75-.5,0-.29.42-1.29,1.26-3.01l-.92-.67c-6.03-4.08-9.05-9.91-9.05-17.51,0-4.63,1.31-8.92,3.94-12.86,2.62-3.94,6.06-7.08,10.3-9.42ZM49.5,27.05c-5.53,3.39-8.29,9.58-8.29,18.58,0,4.61.99,8.21,2.97,10.79,1.98,2.58,4.23,3.88,6.74,3.88,1.73,0,3.17-1.32,4.31-3.96,1.14-2.64,1.72-5.76,1.72-9.38,0-2.78-.37-5.62-1.12-8.54-.75-2.92-1.93-5.46-3.56-7.62-1.63-2.17-2.55-3.42-2.77-3.75Z"/>
      <path class="cls-2" d="M85.02,25.38l.85.59c6.47,3.35,9.7,9.3,9.7,17.84,0,2.57-.76,5.35-2.27,8.33-1.51,2.99-4.18,6.35-7.99,10.09-3.81,3.74-6.76,6.92-8.83,9.55l-.33-.5c1.28-1.95,1.93-3.12,1.93-3.52l-1-.67c-6.15-3.69-9.22-9.1-9.22-16.25,0-3.63.86-7.26,2.57-10.89,1.72-3.63,4.59-7.22,8.64-10.76,4.04-3.55,6.81-6.49,8.3-8.84l.33.5c0,.49-.89,2-2.68,4.52ZM83.84,60.31c1.79.06,3.18-1.24,4.19-3.88,1.01-2.64,1.51-5.83,1.51-9.56,0-4.07-1.19-7.67-3.56-10.82-2.37-3.15-4.56-4.72-6.58-4.72-1.34-.05-2.5,1.49-3.48,4.64-.98,3.15-1.47,6.36-1.47,9.65,0,4.34.92,7.88,2.76,10.61,1.84,2.73,4.05,4.09,6.62,4.09Z"/>
    </g>
  </g>
</svg>